<?xml version="1.0" ?><svg viewBox="0 0 129.88 129.88" xmlns="http://www.w3.org/2000/svg" xmlns:xlink="http://www.w3.org/1999/xlink"><defs><style>.cls-1{fill:url(#linear-gradient);}.cls-2{fill:#fff;}.cls-3{stroke:#fff;stroke-miterlimit:10;stroke-width:5px;fill:url(#linear-gradient-2);}</style><linearGradient gradientUnits="userSpaceOnUse" id="linear-gradient" x1="21.02" x2="108.82" y1="90.28" y2="39.59"><stop offset="0.02" stop-color="red"/><stop offset="1" stop-color="#9e005d"/></linearGradient><linearGradient id="linear-gradient-2" x1="54.54" x2="74.07" xlink:href="#linear-gradient" y1="54.94" y2="54.94"/></defs><title/><g data-name="Layer 1" id="Layer_1"><path class="cls-1" d="M86.31,14.24H43.53a13.65,13.65,0,0,0-11.82,6.82L10.32,58.11a13.62,13.62,0,0,0,0,13.64l21.39,37.06a13.65,13.65,0,0,0,11.82,6.82H86.31a13.64,13.64,0,0,0,11.81-6.82l21.39-37.06a13.62,13.62,0,0,0,0-13.64l-21.39-37A13.64,13.64,0,0,0,86.31,14.24Z"/><path class="cls-2" d="M64.91,36.57A20.46,20.46,0,0,1,83.34,65.93c-.76,1.59-11.69,19-16.26,26.26a2.33,2.33,0,0,1-2,1.11,2.4,2.4,0,0,1-2-1.11C58.38,84.9,47.21,67.45,46.44,65.84A20.47,20.47,0,0,1,64.91,36.57m0-4.14A24.6,24.6,0,0,0,42.7,67.63c.24.5,1,2,16.87,26.8a6.53,6.53,0,0,0,5.51,3,6.47,6.47,0,0,0,5.51-3C86.15,69.66,86.82,68.26,87.08,67.73a24.61,24.61,0,0,0-22.17-35.3Z"/><path class="cls-3" d="M74.07,54.94a9.77,9.77,0,1,1-9.77-9.76A9.76,9.76,0,0,1,74.07,54.94Z"/></g></svg>